<svg width="16" height="16" viewBox="0 0 16 16" fill="none" xmlns="http://www.w3.org/2000/svg">
<path fill-rule="evenodd" clip-rule="evenodd" d="M14.5262 15.4447C14.6434 15.7748 14.9948 15.985 15.365 15.9268C15.7777 15.8619 16.0575 15.488 15.9899 15.0916C15.9541 14.8813 15.8705 14.6723 15.7183 14.4898C15.5662 14.3074 15.3754 14.1871 15.1809 14.1115C14.8194 13.971 14.4099 13.9712 14.0588 14.0006C13.5051 14.047 12.7925 14.2015 12.0407 14.3645C11.8403 14.408 11.6372 14.452 11.4335 14.4948C10.8558 14.587 10.5502 14.5357 10.4067 14.4804C10.2965 14.4379 10.2628 14.3888 10.2388 14.3231C10.2036 14.2267 10.1911 14.0716 10.2231 13.8633C10.2538 13.6629 10.3175 13.4667 10.3758 13.3243C10.4608 13.1165 10.582 12.9549 10.9875 12.5756C11.101 12.4695 11.2361 12.3468 11.3937 12.2037C11.7848 11.8486 12.3146 11.3677 12.9971 10.7003C13.5542 10.1555 13.8913 9.54406 13.8713 8.90743C13.8506 8.24731 13.4532 7.74703 12.9535 7.44329C11.9965 6.86156 10.5168 6.8693 9.29026 7.55467C8.71702 7.87499 8.09485 8.35114 7.48497 8.83003C7.38315 8.90998 7.28122 8.99038 7.17916 9.07088C6.65175 9.48688 6.12054 9.90589 5.57919 10.283C4.93213 10.7337 4.31646 11.0911 3.74343 11.29C3.17698 11.4866 2.70754 11.51 2.30261 11.3702C1.79672 11.1956 1.62985 10.9997 1.56977 10.8838C1.50758 10.7637 1.48641 10.5876 1.56592 10.3155C1.73648 9.73171 2.25127 9.09128 2.63249 8.64392C2.78085 8.46983 3.14713 8.117 3.67034 7.63504C4.04158 7.29308 4.47 6.90577 4.91725 6.50144C5.08463 6.35012 5.25465 6.19642 5.42529 6.04182C6.04853 5.47717 6.67828 4.90217 7.1994 4.40395C7.70355 3.92195 8.15647 3.46496 8.38477 3.15241C9.09781 2.17622 9.17255 1.11433 9.10126 0.626304C9.04315 0.228541 8.66032 -0.0486661 8.24619 0.00714511C7.83206 0.0629563 7.54344 0.430651 7.60155 0.828414C7.628 1.00951 7.60499 1.68734 7.14504 2.31704C7.00677 2.50633 6.65326 2.87379 6.13103 3.37307C5.62578 3.85613 5.00922 4.41923 4.38615 4.98373C4.21877 5.13538 4.05077 5.28725 3.88453 5.43754C3.4353 5.84367 2.99889 6.2382 2.62211 6.58526C2.11896 7.04874 1.67879 7.4666 1.46059 7.72265C1.10869 8.13559 0.37717 9.00069 0.107852 9.92246C-0.0325684 10.4031 -0.0720658 10.9797 0.213974 11.5318C0.502133 12.088 1.05005 12.4835 1.79048 12.7391C2.63186 13.0294 3.48204 12.9273 4.25813 12.658C5.02763 12.3909 5.7774 11.9417 6.46829 11.4605C7.05001 11.0552 7.6225 10.6035 8.1494 10.1878C8.24915 10.1091 8.34726 10.0317 8.44349 9.95614C9.06617 9.46719 9.59868 9.06512 10.0518 8.81191C10.8781 8.3502 11.7443 8.42963 12.1436 8.67236C12.3221 8.78085 12.3554 8.88098 12.3576 8.95123C12.3605 9.04496 12.3127 9.2938 11.9167 9.68104C11.2544 10.3287 10.7672 10.7708 10.3811 11.1213C10.2141 11.2728 10.0661 11.4072 9.93088 11.5336C9.49324 11.943 9.17459 12.2833 8.9663 12.7923C8.87787 13.0084 8.77659 13.314 8.72485 13.6513C8.67429 13.9808 8.66176 14.3992 8.80981 14.8046C8.96908 15.2407 9.302 15.6218 9.84243 15.8302C10.3482 16.0253 10.9727 16.0452 11.7037 15.9261C11.7154 15.9242 11.7269 15.922 11.7385 15.9196C11.9916 15.8666 12.2291 15.8152 12.4519 15.7671C13.1786 15.6099 13.7486 15.4867 14.1905 15.4497C14.3247 15.4384 14.4272 15.4374 14.5034 15.4428C14.5115 15.4434 14.5191 15.4441 14.5262 15.4447Z" fill="#5768FF"/>
</svg>
