<svg width="16" height="16" viewBox="0 0 16 16" fill="none" xmlns="http://www.w3.org/2000/svg">
<g clip-path="url(#clip0_5366_62017)">
<path fill-rule="evenodd" clip-rule="evenodd" d="M0.700391 -3.0598e-08C1.08699 -1.36992e-08 1.40039 0.313401 1.40039 0.7L1.40039 15.3C1.40039 15.6866 1.08699 16 0.70039 16C0.313791 16 0.000389963 15.6866 0.00038998 15.3L0.000390618 0.7C0.000390635 0.313401 0.313791 -4.74968e-08 0.700391 -3.0598e-08Z" fill="white"/>
<path fill-rule="evenodd" clip-rule="evenodd" d="M15.4953 8.54653C15.7686 8.8199 15.7686 9.26311 15.4953 9.53648L10.8009 14.2308C10.5275 14.5042 10.0843 14.5042 9.81095 14.2308L2.76942 7.1893C2.49605 6.91593 2.49605 6.47272 2.76942 6.19935L7.46377 1.50499C7.73714 1.23162 8.18036 1.23162 8.45372 1.50499L15.4953 8.54653ZM14.0103 9.0415L7.95875 2.98992L4.25434 6.69432L10.3059 12.7459L14.0103 9.0415Z" fill="white"/>
<path fill-rule="evenodd" clip-rule="evenodd" d="M9.99023 4.99023L5.99023 8.99023L5.00028 8.00028L9.00028 4.00028L9.99023 4.99023Z" fill="white"/>
</g>
<defs>
<clipPath id="clip0_5366_62017">
<rect width="16" height="16" fill="white" transform="translate(16) rotate(90)"/>
</clipPath>
</defs>
</svg>
