<svg width="21" height="21" viewBox="0 0 21 21" fill="none" xmlns="http://www.w3.org/2000/svg">
<path d="M10.5 0C4.70092 0 0 4.70109 0 10.5C0 16.2992 4.70092 21 10.5 21C16.2991 21 21 16.2992 21 10.5C21 4.70109 16.2991 0 10.5 0ZM10.5 5.25C11.2249 5.25 11.8125 5.83767 11.8125 6.5625C11.8125 7.28766 11.2249 7.875 10.5 7.875C9.77509 7.875 9.1875 7.28766 9.1875 6.5625C9.1875 5.83767 9.77509 5.25 10.5 5.25ZM12.4688 15.75H8.53125C8.16884 15.75 7.875 15.4565 7.875 15.0938C7.875 14.7313 8.16884 14.4375 8.53125 14.4375H9.1875V10.5H8.53125C8.16884 10.5 7.875 10.2065 7.875 9.84375C7.875 9.48134 8.16884 9.1875 8.53125 9.1875H11.1562C11.5187 9.1875 11.8125 9.48134 11.8125 9.84375V14.4375H12.4688C12.8312 14.4375 13.125 14.7313 13.125 15.0938C13.125 15.4565 12.8312 15.75 12.4688 15.75Z" fill="white"/>
</svg>
