<svg width="24" height="24" viewBox="0 0 24 24" fill="none" xmlns="http://www.w3.org/2000/svg">
<path d="M18.3668 5.63324C14.8552 2.12225 9.14425 2.12225 5.6326 5.63324C2.12247 9.14422 2.12247 14.8567 5.6326 18.3677C7.38842 20.1228 9.69424 21 12.0001 21C14.306 21 16.611 20.1228 18.3668 18.3677C21.8777 14.8568 21.8777 9.14422 18.3668 5.63324ZM15.7136 14.6534C16.0069 14.9468 16.0069 15.421 15.7136 15.7144C15.5672 15.8607 15.3752 15.9343 15.1831 15.9343C14.991 15.9343 14.7989 15.8607 14.6525 15.7144L12.0001 13.0611L9.34832 15.7136C9.20126 15.86 9.00915 15.9335 8.81781 15.9335C8.62573 15.9335 8.43362 15.86 8.2873 15.7136C7.99392 15.4203 7.99392 14.9453 8.2873 14.6526L10.939 12.0001L8.28656 9.34755C7.99318 9.05417 7.99318 8.57919 8.28656 8.28655C8.5792 7.99317 9.05417 7.99317 9.34754 8.28655L12 10.9391L14.6525 8.28655C14.9459 7.99317 15.4201 7.99317 15.7135 8.28655C16.0069 8.57919 16.0069 9.05417 15.7135 9.34755L13.061 12.0001L15.7136 14.6534Z" fill="black" fill-opacity="0.7"/>
<path d="M15.7763 14.6976C16.0746 14.9959 16.0746 15.4781 15.7763 15.7764C15.6275 15.9252 15.4321 16 15.2368 16C15.0415 16 14.8461 15.9252 14.6973 15.7764L12 13.0785L9.30345 15.7756C9.15391 15.9244 8.95855 15.9992 8.76398 15.9992C8.56865 15.9992 8.37329 15.9244 8.2245 15.7756C7.92617 15.4773 7.92617 14.9944 8.2245 14.6968L10.9211 11.9997L8.22375 9.30257C7.92542 9.00426 7.92542 8.5213 8.22375 8.22373C8.52133 7.92542 9.00433 7.92542 9.30266 8.22373L12 10.9209L14.6973 8.22373C14.9956 7.92542 15.4778 7.92542 15.7762 8.22373C16.0745 8.5213 16.0745 9.00426 15.7762 9.30257L13.0789 11.9997L15.7763 14.6976Z" fill="white"/>
</svg>
