<svg width="16" height="16" viewBox="0 0 16 16" fill="none" xmlns="http://www.w3.org/2000/svg">
<path fill-rule="evenodd" clip-rule="evenodd" d="M8 16C12.4183 16 16 12.4183 16 8C16 3.58172 12.4183 0 8 0C3.58172 0 0 3.58172 0 8C0 12.4183 3.58172 16 8 16ZM11.1573 5.58596C11.4177 5.32228 11.8608 5.30358 12.1457 5.54213C12.432 5.78133 12.453 6.18879 12.1932 6.45315L7.4255 11.2886C7.29602 11.4201 7.114 11.4962 6.9208 11.5C6.9166 11.4994 6.91169 11.4994 6.90749 11.4994C6.7199 11.4994 6.54071 11.4304 6.4084 11.3066L3.82609 8.8889C3.55448 8.63487 3.55868 8.22677 3.83449 7.97726C4.10959 7.72711 4.55198 7.73098 4.8243 7.985L6.88723 9.91657L11.1573 5.58596Z" fill="#01D6A8"/>
</svg>
