<svg width="16" height="16" viewBox="0 0 16 16" fill="none" xmlns="http://www.w3.org/2000/svg">
<path d="M14.4532 1H1.5469C1.24483 1 1 1.24481 1 1.54688C1 3.0698 1.65287 4.52372 2.79122 5.53555L5.18638 7.66431C5.60169 8.03345 5.83989 8.56388 5.83989 9.11962V14.4525C5.83989 14.8883 6.32698 15.1496 6.69005 14.9074L9.91667 12.7566C10.0688 12.6551 10.1602 12.4844 10.1602 12.3015V9.11962C10.1602 8.56388 10.3984 8.03345 10.8137 7.66431L13.2088 5.53555C14.3471 4.52372 15 3.0698 15 1.54688C15 1.24481 14.7552 1 14.4532 1ZM12.4821 4.71801L10.087 6.84688C9.43845 7.42345 9.06641 8.25177 9.06641 9.11951V12.0089L6.93359 13.4306V9.11962C6.93359 8.25177 6.56155 7.42345 5.91295 6.84688L3.5179 4.71812C2.75031 4.0357 2.26034 3.10067 2.12916 2.09365H13.8708C13.7397 3.10067 13.2498 4.0357 12.4821 4.71801Z" fill="#5768FF"/>
</svg>
