<svg width="16" height="16" viewBox="0 0 16 16" fill="none" xmlns="http://www.w3.org/2000/svg">
<path d="M7.99996 12.2253C8.39548 12.2253 8.7161 11.9046 8.7161 11.5091C8.7161 11.1136 8.39548 10.793 7.99996 10.793C7.60444 10.793 7.28381 11.1136 7.28381 11.5091C7.28381 11.9046 7.60444 12.2253 7.99996 12.2253Z" fill="#5768FF"/>
<path d="M7.99996 0.666748C3.94703 0.666748 0.666626 3.94661 0.666626 8.00008C0.666626 12.053 3.94649 15.3334 7.99996 15.3334C12.0529 15.3334 15.3333 12.0536 15.3333 8.00008C15.3333 3.94715 12.0534 0.666748 7.99996 0.666748ZM7.99996 14.1876C4.58031 14.1876 1.81246 11.4202 1.81246 8.00008C1.81246 4.58043 4.57985 1.81258 7.99996 1.81258C11.4196 1.81258 14.1875 4.57997 14.1875 8.00008C14.1875 11.4197 11.4201 14.1876 7.99996 14.1876Z" fill="#5768FF"/>
<path d="M7.99992 4.34766C6.73629 4.34766 5.70825 5.3757 5.70825 6.63932C5.70825 6.95574 5.96475 7.21224 6.28117 7.21224C6.59759 7.21224 6.85409 6.95574 6.85409 6.63932C6.85409 6.00751 7.36811 5.49349 7.99992 5.49349C8.63173 5.49349 9.14575 6.00751 9.14575 6.63932C9.14575 7.27114 8.63173 7.78516 7.99992 7.78516C7.6835 7.78516 7.427 8.04165 7.427 8.35807V9.79036C7.427 10.1068 7.6835 10.3633 7.99992 10.3633C8.31634 10.3633 8.57284 10.1068 8.57284 9.79036V8.85849C9.56014 8.60345 10.2916 7.70521 10.2916 6.63932C10.2916 5.3757 9.26354 4.34766 7.99992 4.34766Z" fill="#5768FF"/>
</svg>
