<svg width="24" height="24" viewBox="0 0 24 24" fill="none" xmlns="http://www.w3.org/2000/svg">
<path d="M14.1087 10.6825C14.5079 11.0817 14.7797 11.5902 14.8899 12.1438C15 12.6975 14.9435 13.2713 14.7275 13.7928C14.5115 14.3144 14.1457 14.7601 13.6763 15.0737C13.207 15.3873 12.6552 15.5547 12.0907 15.5547C11.5262 15.5547 10.9744 15.3873 10.5051 15.0737C10.0357 14.7601 9.66993 14.3144 9.45393 13.7928C9.23792 13.2713 9.18141 12.6975 9.29155 12.1438C9.40169 11.5902 9.67353 11.0817 10.0727 10.6825C10.6079 10.1473 11.3338 9.84668 12.0907 9.84668C12.8476 9.84668 13.5735 10.1473 14.1087 10.6825Z" fill="#B4B2BC"/>
<path d="M20.6522 4.85402H18.6804L17.2506 2H6.9274L5.50134 4.85545L3.53241 4.85879C2.77743 4.86155 2.05417 5.16276 1.52041 5.6967C0.986639 6.23065 0.685675 6.95401 0.683163 7.70899L0.675537 19.1227C0.676923 19.8792 0.978043 20.6044 1.51296 21.1394C2.04788 21.6744 2.773 21.9757 3.52955 21.9772H20.6522C21.4088 21.9763 22.1342 21.6753 22.6692 21.1402C23.2041 20.6052 23.505 19.8798 23.5058 19.1232V7.70899C23.5053 6.95221 23.2045 6.22654 22.6695 5.69128C22.1345 5.15602 21.409 4.8549 20.6522 4.85402ZM12.0902 18.4097C10.9613 18.4096 9.8579 18.0747 8.91936 17.4475C7.98082 16.8203 7.24934 15.9289 6.81742 14.886C6.3855 13.843 6.27254 12.6954 6.49282 11.5883C6.7131 10.4812 7.25673 9.46424 8.05497 8.66607C8.85321 7.8679 9.8702 7.32436 10.9773 7.10417C12.0845 6.88398 13.2321 6.99704 14.275 7.42904C15.3178 7.86105 16.2092 8.5926 16.8363 9.53119C17.4635 10.4698 17.7982 11.5733 17.7982 12.7021C17.7964 14.2154 17.1945 15.6662 16.1244 16.7362C15.0543 17.8062 13.6035 18.408 12.0902 18.4097Z" fill="#B4B2BC"/>
</svg>
