<svg width="24" height="24" viewBox="0 0 24 24" fill="none" xmlns="http://www.w3.org/2000/svg">
<path fill-rule="evenodd" clip-rule="evenodd" d="M12 5.99957H8C5.79086 5.99957 4 7.79043 4 9.99957V10.9996C4 12.6564 5.34315 13.9996 7 13.9996V15.9996C4.23858 15.9996 2 13.761 2 10.9996V9.99957C2 6.68586 4.68629 3.99957 8 3.99957H12V2.72757C12 2.61972 12.0349 2.51477 12.0994 2.42836C12.2647 2.20712 12.578 2.16173 12.7992 2.32698L15.6562 4.46094C15.6951 4.48999 15.7296 4.52455 15.7585 4.56353C15.9231 4.78527 15.8768 5.09844 15.655 5.26302L12.798 7.38361C12.7118 7.44758 12.6073 7.48212 12.5 7.48212C12.2239 7.48212 12 7.25826 12 6.98212V5.99957Z" fill="#555B7C"/>
<path fill-rule="evenodd" clip-rule="evenodd" d="M12.0582 18H15.9999C18.2091 18 19.9999 16.2091 19.9999 14V13C19.9999 11.3431 18.6568 10 16.9999 10V8C19.7613 8 21.9999 10.2386 21.9999 13V14C21.9999 17.3137 19.3136 20 15.9999 20H12.0582V20.9825C12.0582 21.2587 11.8344 21.4825 11.5582 21.4825C11.4509 21.4825 11.3464 21.448 11.2602 21.384L8.4032 19.2635C8.18146 19.0989 8.13513 18.7857 8.29971 18.564C8.32864 18.525 8.3631 18.4904 8.402 18.4614L11.259 16.3274C11.4803 16.1622 11.7936 16.2075 11.9588 16.4288C12.0234 16.5152 12.0582 16.6202 12.0582 16.728V18Z" fill="#555B7C"/>
</svg>
